<?xml version="1.0" encoding="UTF-8"?><svg id="Capa_2" xmlns="http://www.w3.org/2000/svg" xmlns:xlink="http://www.w3.org/1999/xlink" viewBox="0 0 530.99 28.62"><defs><style>.cls-1{fill:url(#Degradado_sin_nombre_193);}</style><linearGradient id="Degradado_sin_nombre_193" x1="0" y1="14.31" x2="530.99" y2="14.31" gradientUnits="userSpaceOnUse"><stop offset="0" stop-color="#cb9569"/><stop offset=".2" stop-color="#855633"/><stop offset=".4" stop-color="#e4bb4f"/><stop offset=".58" stop-color="#c3996d"/><stop offset=".76" stop-color="#deb555"/><stop offset=".88" stop-color="#e7c7ac"/><stop offset="1" stop-color="#cca98a"/></linearGradient></defs><g id="Capa_1-2"><path class="cls-1" d="m530.89,14.17c-.41-3.14-2.03-5.92-4.54-7.85-2.06-1.58-4.6-2.26-7.18-1.92-2.57.34-4.85,1.66-6.43,3.72-2.68,3.5-2.02,8.53,1.48,11.22.58.44,1.4.33,1.85-.24.44-.58.33-1.4-.24-1.85-2.35-1.8-2.79-5.18-.99-7.52,1.15-1.5,2.81-2.46,4.69-2.71,1.87-.25,3.73.25,5.23,1.4,1.95,1.5,3.21,3.66,3.53,6.11.32,2.44-.32,4.86-1.82,6.81-1.93,2.52-4.73,4.14-7.89,4.56-3.15.41-6.28-.42-8.8-2.35-6.87-5.26-8.37-14.87-3.36-21.41L508.04,0H25.09c-.05,0-.1.02-.15.03-.09.01-.18.02-.26.05-.09.03-.16.07-.24.12-.05.03-.1.04-.14.07-.02.02-.03.04-.06.06-.07.06-.12.13-.18.2-.05.07-.1.13-.13.2-.04.07-.05.15-.08.23-.02.09-.05.17-.05.27,0,.03-.02.05-.02.08,0,.05.02.1.03.16.01.09.02.18.05.26.03.09.07.16.12.24.03.05.04.1.07.14,5.12,6.68,3.86,16.29-2.83,21.41-2.52,1.93-5.65,2.77-8.8,2.35-3.15-.42-5.95-2.03-7.89-4.56-1.5-1.95-2.14-4.37-1.82-6.81.32-2.44,1.58-4.61,3.53-6.11,1.5-1.15,3.36-1.64,5.23-1.4,1.87.25,3.54,1.21,4.69,2.71,1.8,2.35,1.35,5.72-.99,7.52-.58.44-.69,1.27-.24,1.85.44.58,1.27.69,1.85.24,3.5-2.68,4.17-7.71,1.48-11.22-1.58-2.06-3.86-3.38-6.43-3.72-2.57-.34-5.12.34-7.18,1.92C2.13,8.25.52,11.03.1,14.17c-.41,3.14.42,6.25,2.34,8.76,2.36,3.08,5.78,5.06,9.63,5.57.65.09,1.29.13,1.93.13,3.18,0,6.25-1.04,8.81-3,7.16-5.49,9-15.35,4.69-22.99h475.43c-4.16,7.53-2.08,17.38,5.23,22.99,2.56,1.97,5.64,3,8.81,3,.64,0,1.29-.04,1.93-.13,3.85-.51,7.27-2.49,9.63-5.57,1.93-2.51,2.76-5.62,2.34-8.76Z"/></g></svg>