<?xml version="1.0" encoding="UTF-8"?><svg id="Capa_2" xmlns="http://www.w3.org/2000/svg" viewBox="0 0 531.55 28.65"><defs><style>.cls-1{fill:#edf3de;}</style></defs><g id="Capa_1-2"><g><path class="cls-1" d="m14.02,28.65c-.64,0-1.29-.04-1.94-.13-3.85-.51-7.28-2.49-9.64-5.57C.52,20.44-.31,17.33.1,14.18c.42-3.14,2.03-5.93,4.54-7.86,2.06-1.58,4.61-2.26,7.18-1.92,2.57.34,4.86,1.66,6.44,3.72,2.69,3.5,2.02,8.54-1.48,11.23-.58.44-1.41.33-1.85-.24-.44-.58-.33-1.41.24-1.85,2.35-1.8,2.8-5.18,1-7.53-1.15-1.5-2.82-2.46-4.69-2.71-1.88-.25-3.73.25-5.23,1.4-1.95,1.5-3.21,3.67-3.53,6.11-.32,2.44.32,4.86,1.82,6.82,1.94,2.53,4.74,4.15,7.89,4.56,3.16.41,6.28-.42,8.81-2.36,6.69-5.13,7.96-14.75,2.83-21.44-.44-.58-.33-1.41.24-1.85.58-.44,1.41-.33,1.85.24,6.01,7.84,4.52,19.12-3.32,25.13-2.57,1.97-5.64,3.01-8.82,3.01Z"/><path class="cls-1" d="m517.53,28.65c-3.18,0-6.26-1.04-8.82-3.01-7.32-5.61-9.4-15.48-5.24-23.01H25.12c-.73,0-1.32-.59-1.32-1.32S24.39,0,25.12,0h483.45l-1.63,2.12c-5.02,6.55-3.51,16.16,3.36,21.44,2.53,1.94,5.65,2.77,8.81,2.36,3.15-.42,5.96-2.04,7.89-4.56,1.5-1.95,2.15-4.38,1.82-6.82-.32-2.44-1.58-4.61-3.53-6.11-1.5-1.15-3.36-1.65-5.23-1.4-1.87.25-3.54,1.21-4.69,2.71-1.8,2.35-1.35,5.73,1,7.53.58.44.69,1.27.24,1.85-.44.58-1.27.69-1.85.24-3.5-2.69-4.17-7.72-1.48-11.23,1.58-2.06,3.87-3.38,6.44-3.72,2.58-.34,5.12.34,7.18,1.92,2.51,1.93,4.13,4.72,4.54,7.86.42,3.14-.42,6.25-2.34,8.77-2.36,3.08-5.79,5.06-9.64,5.57-.65.09-1.29.13-1.94.13Z"/></g></g></svg>