<?xml version="1.0" encoding="UTF-8"?><svg id="Capa_2" xmlns="http://www.w3.org/2000/svg" viewBox="0 0 24.79 24.32"><defs><style>.cls-1{fill:#fff;}</style></defs><g id="Capa_1-2"><g><path class="cls-1" d="m0,21.94c.1-.2.28-.3.48-.37.81-.28,1.61-.57,2.42-.86.16-.06.25-.15.31-.31.52-1.45,1.05-2.89,1.59-4.34.06-.17.03-.25-.13-.34-1.2-.68-1.97-1.69-2.29-3.03-.28-1.18-.08-2.31.47-3.37.87-1.69,1.75-3.38,2.63-5.07.2-.38.43-.47.84-.32,1.91.7,3.82,1.39,5.72,2.1.24.09.45.1.69,0,1.9-.71,3.81-1.4,5.72-2.1.42-.15.65-.06.86.33.87,1.68,1.75,3.36,2.62,5.05.72,1.4.82,2.83.17,4.29-.41.91-1.06,1.62-1.93,2.1-.21.12-.24.21-.16.43.52,1.4,1.04,2.81,1.54,4.22.07.2.18.31.39.38.8.27,1.6.56,2.39.85.24.09.43.22.46.5.02.26-.12.45-.46.57-1.17.43-2.33.85-3.5,1.28-.29.11-.58.21-.86.32-.27.1-.52.13-.73-.11-.22-.25-.11-.5.03-.74.42-.72.83-1.44,1.26-2.15.11-.18.13-.34.05-.54-.52-1.41-1.04-2.83-1.55-4.25-.08-.22-.18-.25-.39-.21-2.34.44-4.66-.96-5.33-3.25-.35-1.18-.56-2.38-.84-3.58-.02-.08-.04-.16-.11-.24-.12.51-.23,1.02-.35,1.52-.19.79-.33,1.59-.57,2.37-.51,1.68-2.12,3.03-3.87,3.22-.5.06-1,.06-1.49-.06-.17-.04-.26,0-.32.18-.52,1.45-1.05,2.89-1.58,4.34-.06.17-.04.3.05.46.44.75.88,1.5,1.32,2.26.09.16.16.31.09.5-.12.31-.41.42-.78.28-.86-.31-1.73-.63-2.59-.95-.57-.21-1.13-.42-1.7-.62-.22-.08-.41-.18-.55-.37v-.39ZM11.76,7.12c.04-.1-.07-.12-.16-.16-.34-.13-.68-.25-1.02-.37-1.37-.5-2.74-1-4.11-1.51-.15-.06-.24-.05-.32.11-.41.82-.84,1.63-1.27,2.45-.09.17-.06.23.12.3,1.95.71,3.91,1.42,5.86,2.14.18.07.24.01.27-.16.08-.41.18-.82.28-1.23.12-.51.23-1.02.36-1.58Zm1.28.06s0,.05.02.09c.2.88.41,1.76.6,2.64.04.2.11.23.29.16,1.94-.71,3.87-1.42,5.81-2.12.22-.08.22-.16.12-.35-.42-.79-.83-1.58-1.24-2.38-.09-.18-.18-.2-.36-.13-.83.31-1.66.61-2.5.92-.85.31-1.7.62-2.54.93-.1.04-.23.06-.21.25Z"/><path class="cls-1" d="m12.92,1.71c0,.31,0,.63,0,.94,0,.12-.01.24-.04.36-.06.23-.26.38-.5.38-.23,0-.42-.15-.48-.37-.03-.12-.04-.24-.04-.36,0-.64,0-1.27,0-1.91,0-.1.01-.21.03-.31C11.94.16,12.13,0,12.39,0c.26,0,.45.16.5.43.02.13.03.27.03.41,0,.29,0,.58,0,.87Z"/><path class="cls-1" d="m8.45,1.68c0-.37.38-.61.72-.46.1.05.19.12.27.2.48.48.97.97,1.45,1.45.06.06.12.13.17.2.14.21.11.47-.06.64-.16.16-.42.2-.62.07-.07-.05-.14-.1-.21-.17-.49-.49-.98-.98-1.47-1.47-.13-.13-.25-.27-.24-.48Z"/><path class="cls-1" d="m16.32,1.71c0,.15-.07.28-.18.39-.53.53-1.05,1.06-1.59,1.59-.24.24-.54.25-.76.05-.22-.21-.23-.52.02-.77.53-.54,1.06-1.07,1.6-1.61.17-.17.38-.24.62-.13.19.09.29.25.29.48Z"/></g></g></svg>