<?xml version="1.0" encoding="UTF-8"?><svg id="Capa_2" xmlns="http://www.w3.org/2000/svg" viewBox="0 0 102.78 93.88"><defs><style>.cls-1{fill:#c1272d;}</style></defs><g id="Capa_1-2"><path class="cls-1" d="m93.28,54.06c5.69-8.15,9.68-16.97,9.45-27.19,0-1.51.13-3.03-.04-4.52-.16-1.49-.55-2.97-.96-4.42-3.73-13.16-17.22-20.86-29.71-16.87-8.03,2.56-14.2,7.54-18.55,14.78-1.48,2.46-2.47,2.46-3.98.07-.28-.45-.54-.92-.84-1.36C43.16,6.53,35.85.98,26.04.14,12.31-1.04.71,10.15.05,24.12c-.54,11.43,3.47,21.24,9.87,30.31,10.84,15.36,24.76,27.59,39.73,38.73,1.42,1.06,2.48.88,3.79-.1,15.03-11.21,29.02-23.5,39.83-39Z"/></g></svg>