<svg width="38" height="35" viewBox="0 0 38 35" fill="none" xmlns="http://www.w3.org/2000/svg">
<path d="M37.8362 9.84668C37.9207 13.5919 36.4545 16.824 34.3636 19.8106C30.3877 25.4907 25.2506 29.9944 19.7276 34.1024C19.2462 34.4579 18.8567 34.5275 18.3349 34.139C12.834 30.0567 7.71891 25.575 3.73561 19.9462C1.38385 16.6225 -0.0933508 13.0275 0.108754 8.83893C0.351279 3.71954 4.61752 -0.381106 9.65911 0.0513116C13.2639 0.359135 15.9501 2.39297 17.9711 5.32828C18.0814 5.48952 18.1732 5.66175 18.2798 5.82666C18.8347 6.70249 19.1984 6.70249 19.7423 5.80101C21.3408 3.14786 23.608 1.32291 26.5587 0.384787C31.1483 -1.07737 36.1054 1.74434 37.4761 6.5669C37.6267 7.09826 37.7663 7.64062 37.8288 8.18664C37.8876 8.73265 37.8435 9.28967 37.8435 9.84302L37.8362 9.84668Z" fill="#C1272D"/>
</svg>
