<?xml version="1.0" encoding="UTF-8"?><svg id="Capa_2" xmlns="http://www.w3.org/2000/svg" viewBox="0 0 23.4 23.86"><defs><style>.cls-1{fill:#fff;}</style></defs><g id="Capa_1-2"><path class="cls-1" d="m11.93,0c.42.17.58.5.57.94-.01.58,0,.58.59.58.59,0,.94.3.95.79,0,.44-.31.79-.75.81-.2.01-.4,0-.61,0-.13,0-.18.05-.18.18,0,.54,0,1.07,0,1.61,0,.15.12.21.21.28,1.75,1.31,3.5,2.63,5.25,3.94.15.11.3.22.44.34.34.29.4.74.16,1.09-.24.34-.66.44-1.05.22-.11-.06-.21-.13-.31-.2-.07.06-.04.13-.04.19,0,.56,0,1.12,0,1.68,0,.19.06.29.23.37,1.78.88,3.55,1.78,5.33,2.65.48.24.68.58.67,1.1-.01,2.08,0,4.16,0,6.24,0,.12,0,.25-.03.37-.08.4-.37.65-.79.65-.69,0-1.38,0-2.07,0-.22,0-.3-.07-.29-.29,0-1.15,0-2.3,0-3.45,0-.58-.28-.93-.75-.92-.46,0-.73.35-.74.91,0,1.14,0,2.28,0,3.42,0,.32,0,.32-.33.32-1.62,0-3.24,0-4.87,0-.31,0-.31,0-.31-.31,0-1.61,0-3.23,0-4.84,0-.69-.37-1.23-.96-1.46-1.02-.39-2.08.32-2.09,1.42-.01,1.58,0,3.17,0,4.75,0,.49.03.44-.44.44-1.58,0-3.17,0-4.75,0-.32,0-.32,0-.32-.33,0-1.13,0-2.27,0-3.4,0-.13,0-.27-.03-.39-.08-.32-.42-.56-.76-.54-.37.03-.67.31-.69.67-.02.31,0,.62,0,.93,0,.92,0,1.83,0,2.75,0,.22-.06.32-.3.31-.67-.02-1.33,0-2,0-.54,0-.87-.32-.88-.87,0-.43,0-.85,0-1.28,0-1.72,0-3.43,0-5.15,0-.51.19-.84.66-1.07,1.77-.87,3.53-1.76,5.29-2.63.22-.11.3-.24.29-.48-.02-.52,0-1.04,0-1.56,0-.07.02-.15-.03-.24-.1.07-.2.14-.31.2-.36.22-.79.14-1.04-.18-.26-.33-.22-.78.08-1.08.09-.09.19-.16.29-.23,1.81-1.36,3.62-2.72,5.44-4.08.17-.12.24-.25.23-.46-.01-.46-.01-.92,0-1.37,0-.2-.07-.26-.26-.25-.16.01-.33,0-.49,0-.46-.01-.79-.34-.8-.77,0-.46.3-.8.76-.83.19-.01.37-.01.56,0,.16,0,.23-.05.22-.21,0-.13,0-.26,0-.4-.02-.44.16-.75.57-.92h.47Zm-.23,9.37c-1.26,0-2.31,1.03-2.31,2.28,0,1.26,1.04,2.31,2.31,2.31,1.26,0,2.3-1.03,2.31-2.29.01-1.26-1.04-2.31-2.31-2.31Z"/></g></svg>