<?xml version="1.0" encoding="UTF-8"?><svg id="Capa_2" xmlns="http://www.w3.org/2000/svg" viewBox="0 0 111.4 102.98"><defs><style>.cls-1{fill:#c4af96;}</style></defs><g id="Capa_1-2"><g><path class="cls-1" d="m3.02,42.69c-2.38-.04-3.07.77-3.02,3.08.13,6.13.04,12.27.04,18.4,0,6.22.1,12.45-.05,18.67-.06,2.4.8,3.08,3.09,3,4.17-.15,8.38.27,12.52-.12.05,0,.1,0,.15,0l3.7-42.96c-5.48,0-10.96.03-16.45-.06Z"/><path class="cls-1" d="m101.76,42.75c-9.78-.02-19.56-.05-29.33.03-2.18.02-2.68-.35-1.54-2.46,3.43-6.36,5.93-13.11,7.51-20.17,2.05-9.15-4.28-18.4-13.55-19.94-5.56-.92-9.53,1.31-10.21,6.31-2.11,15.51-10.78,26.51-23.4,34.93-1.18.79-2.38,1.18-3.73,1.28l-3.83,44.46c1.53.82,2.99,1.96,4.46,3.44,8.16,8.23,18.12,12.8,30.16,12.32,9.14-.37,18.31-.06,27.46-.08,9.1-.02,15.6-5.09,17.63-13.95,2.64-11.51,5.17-23.05,7.69-34.59,1.5-6.88-2.29-11.56-9.31-11.58Z"/></g></g></svg>