<svg width="41" height="38" viewBox="0 0 41 38" fill="none" xmlns="http://www.w3.org/2000/svg">
<path d="M0.0184561 23.7778C0.0184561 21.5315 0.0515277 19.2814 0.00375756 17.0351C-0.0146156 16.1922 0.238934 15.8954 1.1135 15.9064C4.02013 15.954 6.92676 15.9137 9.83339 15.932C10.4471 15.9357 10.9652 15.7891 11.4796 15.4483C16.1207 12.3627 19.3029 8.33172 20.0783 2.64799C20.3281 0.819373 21.787 -0.00148726 23.83 0.335652C27.2364 0.899994 29.5625 4.28971 28.8092 7.64278C28.2286 10.23 27.3099 12.7035 26.0495 15.0342C25.6306 15.8074 25.8143 15.943 26.6154 15.9357C30.2092 15.9064 33.7993 15.9174 37.3931 15.9247C39.9727 15.9284 41.3654 17.647 40.8142 20.1683C39.8882 24.3972 38.9585 28.6224 37.9884 32.844C37.2424 36.0908 34.8503 37.9524 31.51 37.956C28.1441 37.9634 24.7781 37.8498 21.4195 37.9853C16.9989 38.1612 13.3353 36.4902 10.3368 33.4706C8.9625 32.0891 7.63229 31.4917 5.73985 31.6713C4.21856 31.8142 2.67154 31.6603 1.13922 31.7153C0.297728 31.7446 -0.0182902 31.4917 0.00375756 30.6159C0.0552024 28.3366 0.0221307 26.0572 0.0221307 23.7778H0.0184561Z" fill="#C4AF96"/>
</svg>
