<?xml version="1.0" encoding="UTF-8"?><svg id="Capa_2" xmlns="http://www.w3.org/2000/svg" viewBox="0 0 130.33 27.07"><defs><style>.cls-1{fill:#fff;}.cls-2{fill:#9e5627;}.cls-3{fill:#dfe3d1;}</style></defs><g id="Capa_1-2"><g><g><path class="cls-1" d="m5.09,1.16h120.16c2.17,0,3.93,1.76,3.93,3.93v16.9c0,2.17-1.76,3.93-3.93,3.93H5.09c-2.17,0-3.93-1.76-3.93-3.93V5.09c0-2.17,1.76-3.93,3.93-3.93Z"/><path class="cls-3" d="m125.24,2.32c1.53,0,2.77,1.24,2.77,2.77v16.9c0,1.53-1.24,2.77-2.77,2.77H5.09c-1.53,0-2.77-1.24-2.77-2.77V5.09c0-1.53,1.24-2.77,2.77-2.77h120.16m0-2.32H5.09C2.29,0,0,2.29,0,5.09v16.9c0,2.8,2.29,5.09,5.09,5.09h120.16c2.8,0,5.09-2.29,5.09-5.09V5.09c0-2.8-2.29-5.09-5.09-5.09h0Z"/></g><g><path class="cls-2" d="m33.83,8.27c.17,0,.32.05.44.16s.18.24.18.39c0,.09-.02.18-.06.28l-3.82,9.04c-.06.13-.14.22-.24.29-.1.06-.21.09-.33.09-.11,0-.21-.05-.31-.11-.1-.06-.18-.15-.23-.27l-3.79-9.02s-.03-.08-.04-.13-.01-.1-.01-.15c0-.18.07-.32.2-.42.13-.11.26-.16.39-.16.26,0,.45.14.57.41l3.5,8.34h-.34l3.36-8.35c.12-.25.3-.38.54-.38Z"/><path class="cls-2" d="m39.15,18.67c-.79,0-1.48-.17-2.06-.5-.58-.33-1.04-.79-1.36-1.37-.32-.58-.48-1.25-.48-2.01,0-.85.17-1.57.5-2.17.34-.6.78-1.06,1.32-1.38.54-.32,1.11-.47,1.72-.47.45,0,.88.08,1.3.25s.79.41,1.11.73c.32.32.58.7.78,1.14s.3.94.31,1.49c0,.16-.06.29-.17.39s-.25.15-.41.15h-5.78l-.26-1.01h5.62l-.23.21v-.32c-.03-.4-.16-.74-.39-1.03-.23-.29-.51-.51-.83-.67-.33-.16-.67-.23-1.03-.23-.29,0-.58.05-.87.16-.29.11-.55.27-.78.5-.23.22-.41.52-.56.88s-.21.79-.21,1.3c0,.57.11,1.06.34,1.49.23.43.55.77.96,1.02.41.25.89.37,1.43.37.34,0,.64-.04.89-.13.25-.09.47-.2.65-.33.18-.13.33-.27.46-.4.13-.09.25-.13.38-.13.14,0,.25.05.35.15s.15.21.15.35c0,.17-.08.32-.23.45-.28.3-.66.57-1.12.79-.46.22-.96.34-1.48.34Z"/><path class="cls-2" d="m44.62,18.52c-.17,0-.3-.06-.42-.18-.11-.12-.17-.26-.17-.42v-6.36c0-.18.06-.32.17-.43.11-.11.25-.17.42-.17.18,0,.32.06.42.17.11.11.16.26.16.43v1.92l-.18-.31c.06-.3.16-.6.31-.88.15-.29.34-.55.58-.77.23-.23.5-.41.8-.54.3-.13.63-.2,1-.2.21,0,.41.05.59.15s.27.25.27.43c0,.2-.05.36-.16.46s-.23.15-.37.15c-.13,0-.25-.03-.37-.09-.12-.06-.26-.09-.44-.09-.24,0-.48.07-.72.2-.24.14-.46.32-.66.56-.2.24-.36.51-.48.82-.12.31-.18.64-.18.99v3.55c0,.17-.06.31-.17.42-.11.12-.25.18-.42.18Z"/><path class="cls-2" d="m59.58,10.96c.18,0,.32.06.42.17.11.11.16.26.16.43v3.98c0,.99-.28,1.75-.83,2.29s-1.32.81-2.3.81-1.74-.27-2.29-.81-.83-1.3-.83-2.29v-3.98c0-.18.06-.32.17-.43.11-.11.25-.17.42-.17.18,0,.32.06.42.17.11.11.16.26.16.43v3.98c0,.66.17,1.17.51,1.51.34.34.82.51,1.43.51s1.11-.17,1.45-.51c.34-.34.51-.84.51-1.51v-3.98c0-.18.05-.32.16-.43.11-.11.25-.17.42-.17Z"/><path class="cls-2" d="m66.06,10.77c.66,0,1.26.17,1.78.5.53.34.94.8,1.25,1.38.31.58.46,1.26.46,2.03s-.15,1.45-.46,2.05c-.31.59-.72,1.07-1.24,1.41-.52.35-1.11.52-1.76.52-.36,0-.7-.06-1.02-.17-.32-.11-.6-.26-.86-.45-.26-.19-.47-.4-.65-.62s-.3-.45-.38-.69l.32-.19v1.45c0,.17-.05.31-.16.42s-.25.18-.42.18c-.17,0-.3-.06-.42-.17-.11-.11-.17-.26-.17-.43v-9.7c0-.17.06-.31.17-.42.11-.12.25-.18.42-.18.18,0,.32.06.42.18.11.12.16.26.16.42v4.5l-.22-.12c.07-.24.19-.48.36-.71.17-.23.38-.43.63-.61.25-.18.53-.32.83-.43.31-.11.63-.16.96-.16Zm-.13,1.08c-.49,0-.92.12-1.29.37-.38.25-.67.58-.88,1.01-.21.42-.31.91-.31,1.46s.1,1.04.31,1.48.5.79.88,1.04c.38.25.81.38,1.29.38s.92-.13,1.29-.38c.37-.25.66-.6.88-1.04.21-.44.32-.93.32-1.48s-.11-1.03-.32-1.46c-.21-.42-.51-.76-.88-1.01-.37-.25-.8-.37-1.29-.37Z"/><path class="cls-2" d="m71.84,9.86c-.24,0-.42-.05-.54-.15-.12-.1-.18-.25-.18-.45v-.2c0-.21.06-.36.19-.45.13-.1.31-.15.54-.15s.41.05.53.15c.12.1.18.25.18.45v.2c0,.21-.06.36-.18.45-.12.1-.3.15-.53.15Zm.6,8.06c0,.17-.06.31-.17.42-.11.12-.25.18-.42.18-.18,0-.32-.06-.43-.18-.11-.12-.17-.26-.17-.42v-6.48c0-.17.06-.31.17-.42.11-.12.26-.18.43-.18.17,0,.3.06.42.18s.17.26.17.42v6.48Z"/><path class="cls-2" d="m77.89,10.77c.51,0,.96.05,1.36.16.4.11.72.25.95.44.23.19.35.4.35.63,0,.14-.04.26-.13.38s-.21.17-.37.17c-.13,0-.23-.03-.31-.08-.08-.05-.16-.12-.23-.19-.07-.07-.17-.14-.3-.21-.12-.06-.29-.11-.51-.15-.22-.04-.45-.07-.67-.07-.54,0-1.01.13-1.41.38s-.72.59-.96,1.02c-.23.43-.35.92-.35,1.46s.11,1.03.34,1.46.54.77.94,1.02c.4.25.86.38,1.39.38.34,0,.61-.03.81-.09s.37-.13.52-.21c.17-.1.29-.19.39-.29.09-.1.22-.15.39-.15s.29.05.39.16.14.24.14.39c0,.19-.12.38-.37.57s-.58.36-.99.49c-.42.13-.89.2-1.4.2-.74,0-1.39-.17-1.94-.52-.56-.35-.99-.82-1.29-1.42-.31-.6-.46-1.27-.46-2.01s.16-1.41.47-2c.32-.59.76-1.07,1.32-1.42.57-.35,1.22-.53,1.96-.53Z"/><path class="cls-2" d="m88.36,10.89c.17,0,.3.06.42.17.11.11.17.25.17.42v6.45c0,.17-.06.31-.17.42-.11.12-.25.18-.42.18-.18,0-.32-.06-.43-.18-.11-.12-.17-.26-.17-.42v-1.39l.28-.03c0,.22-.07.46-.22.71-.15.25-.35.48-.6.7-.25.22-.55.4-.89.54-.34.14-.71.21-1.11.21-.66,0-1.26-.17-1.79-.52-.53-.35-.95-.82-1.25-1.41-.3-.59-.45-1.27-.45-2.03s.15-1.45.46-2.04c.31-.59.72-1.05,1.24-1.39.52-.34,1.11-.5,1.76-.5.42,0,.81.07,1.17.2.36.14.67.32.94.56.27.23.47.49.62.78s.22.57.22.85l-.38-.09v-1.59c0-.17.06-.3.17-.42s.26-.17.43-.17Zm-3.01,6.7c.49,0,.92-.13,1.29-.38.37-.25.66-.6.88-1.03.21-.43.32-.92.32-1.47s-.11-1.02-.32-1.45c-.21-.43-.51-.77-.88-1.02s-.8-.38-1.29-.38-.9.12-1.28.37c-.38.25-.67.59-.88,1.02-.21.43-.32.92-.32,1.46s.1,1.04.31,1.47c.21.43.5.78.88,1.03.38.25.81.38,1.29.38Z"/><path class="cls-2" d="m94.46,10.77c.51,0,.96.05,1.36.16.4.11.72.25.95.44.23.19.35.4.35.63,0,.14-.04.26-.13.38s-.21.17-.37.17c-.13,0-.23-.03-.31-.08-.08-.05-.16-.12-.23-.19-.07-.07-.17-.14-.3-.21-.12-.06-.29-.11-.51-.15-.22-.04-.45-.07-.67-.07-.54,0-1.01.13-1.41.38s-.72.59-.96,1.02c-.23.43-.35.92-.35,1.46s.11,1.03.34,1.46.54.77.94,1.02c.4.25.86.38,1.39.38.34,0,.61-.03.81-.09s.37-.13.52-.21c.17-.1.29-.19.39-.29.09-.1.22-.15.39-.15s.29.05.39.16.14.24.14.39c0,.19-.12.38-.37.57s-.58.36-.99.49c-.42.13-.89.2-1.4.2-.74,0-1.39-.17-1.94-.52-.56-.35-.99-.82-1.29-1.42-.31-.6-.46-1.27-.46-2.01s.16-1.41.47-2c.32-.59.76-1.07,1.32-1.42.57-.35,1.22-.53,1.96-.53Z"/><path class="cls-2" d="m99.23,9.86c-.24,0-.42-.05-.54-.15-.12-.1-.18-.25-.18-.45v-.2c0-.21.06-.36.19-.45.13-.1.31-.15.54-.15s.41.05.53.15c.12.1.18.25.18.45v.2c0,.21-.06.36-.18.45-.12.1-.3.15-.53.15Zm.6,8.06c0,.17-.06.31-.17.42-.11.12-.25.18-.42.18-.18,0-.32-.06-.43-.18-.11-.12-.17-.26-.17-.42v-6.48c0-.17.06-.31.17-.42.11-.12.26-.18.43-.18.17,0,.3.06.42.18s.17.26.17.42v6.48Z"/><path class="cls-2" d="m109.11,14.72c0,.76-.17,1.44-.5,2.03-.34.59-.79,1.06-1.36,1.4-.57.34-1.21.51-1.92.51s-1.36-.17-1.93-.51c-.58-.34-1.03-.81-1.37-1.4-.34-.59-.5-1.27-.5-2.03s.17-1.44.5-2.03c.34-.59.79-1.06,1.37-1.4.57-.34,1.22-.51,1.93-.51s1.35.17,1.92.51c.57.34,1.02.81,1.36,1.4.34.59.5,1.27.5,2.03Zm-1.18,0c0-.57-.12-1.06-.34-1.48-.23-.42-.54-.76-.94-1.01-.39-.25-.84-.37-1.32-.37s-.94.12-1.34.37c-.39.25-.71.58-.94,1.01-.23.42-.35.92-.35,1.48s.12,1.05.35,1.48c.23.43.55.77.94,1.02.39.25.84.37,1.34.37s.93-.12,1.32-.37c.4-.25.71-.59.94-1.02.23-.43.34-.92.34-1.48Zm-2.71-4.43c-.06,0-.13-.03-.2-.09-.08-.06-.11-.14-.1-.23,0-.07.02-.15.07-.23l.88-1.43c.06-.1.14-.19.24-.28s.22-.13.36-.13c.2,0,.34.05.44.15s.15.24.15.4c0,.08-.03.15-.06.22s-.07.14-.13.22l-1.11,1.17c-.07.08-.15.14-.24.17-.09.04-.19.06-.29.06Z"/><path class="cls-2" d="m114.62,10.77c.66,0,1.18.14,1.56.41.38.27.65.64.81,1.1s.24.97.24,1.55v4.09c0,.17-.06.31-.17.42-.11.12-.25.18-.42.18-.18,0-.32-.06-.42-.18-.11-.12-.16-.26-.16-.42v-4.07c0-.37-.06-.71-.17-1.01-.11-.3-.3-.54-.56-.72-.26-.18-.61-.27-1.05-.27-.41,0-.79.09-1.13.27s-.61.42-.82.72c-.21.3-.31.64-.31,1.01v4.07c0,.17-.06.31-.17.42-.11.12-.25.18-.42.18s-.3-.06-.42-.18c-.11-.12-.17-.26-.17-.42v-6.36c0-.18.06-.32.17-.43.11-.11.25-.17.42-.17.18,0,.32.06.42.17.11.11.16.26.16.43v1.02l-.29.32c.05-.25.16-.51.34-.77.18-.26.39-.49.66-.7.26-.2.56-.37.88-.49.32-.12.66-.18,1.01-.18Z"/></g><path class="cls-2" d="m15.29,5.43c.42.08.84.14,1.24.29,1.89.71,3.06,2.05,3.52,4.01.19.83.14,1.65-.13,2.46-.45,1.37-1.12,2.64-1.84,3.88-.95,1.64-2,3.21-3.12,4.74-.02.02-.04.05-.05.07-.13.17-.21.17-.34,0-1.24-1.7-2.41-3.45-3.44-5.29-.49-.87-.95-1.76-1.31-2.69-.21-.53-.4-1.08-.47-1.65-.08-.63-.01-1.25.17-1.85.63-2.09,2.03-3.37,4.14-3.89.18-.04.36-.06.54-.09.37,0,.73,0,1.1,0Zm1.37,5.4c0-1.06-.87-1.92-1.92-1.91-1.06,0-1.91.86-1.91,1.92,0,1.07.86,1.92,1.93,1.92,1.06,0,1.91-.86,1.9-1.92Z"/></g></g></svg>