<?xml version="1.0" encoding="UTF-8"?>
<svg id="Capa_2" xmlns="http://www.w3.org/2000/svg" viewBox="0 0 130.33 27.07">
  <defs>
    <style>
      .cls-1 {
        letter-spacing: -0.02em;
      }
      .cls-2 {
        fill: #fff;
      }
      .cls-3,
      .cls-4 {
        fill: #9e5627;
      }
      .cls-5 {
        fill: #dfe3d1;
      }
      .cls-6 {
        letter-spacing: 0;
      }
      .cls-4 {
        font-family: Quicksand-Medium, Quicksand;
        font-size: 14.62px;
        font-variation-settings: 'wght' 500;
        font-weight: 500;
      }
    </style>
  </defs>
  <g id="Capa_1-2">
    <g>
      <g><path class="cls-2" d="m5.09,1.16h120.16c2.17,0,3.93,1.76,3.93,3.93v16.9c0,2.17-1.76,3.93-3.93,3.93H5.09c-2.17,0-3.93-1.76-3.93-3.93V5.09c0-2.17,1.76-3.93,3.93-3.93Z"/><path class="cls-5" d="m125.24,2.32c1.53,0,2.77,1.24,2.77,2.77v16.9c0,1.53-1.24,2.77-2.77,2.77H5.09c-1.53,0-2.77-1.24-2.77-2.77V5.09c0-1.53,1.24-2.77,2.77-2.77h120.16m0-2.32H5.09C2.29,0,0,2.29,0,5.09v16.9c0,2.8,2.29,5.09,5.09,5.09h120.16c2.8,0,5.09-2.29,5.09-5.09V5.09c0-2.8-2.29-5.09-5.09-5.09h0Z"/></g>
      <text class="cls-4" transform="translate(25.13 18.52)">
        <tspan class="cls-1" x="0" y="0">V</tspan>
        <tspan class="cls-6" x="9.45" y="0">er ubicación</tspan>
      </text><path class="cls-3" d="m15.29,5.43c.42.08.84.14,1.24.29,1.89.71,3.06,2.05,3.52,4.01.19.83.14,1.65-.13,2.46-.45,1.37-1.12,2.64-1.84,3.88-.95,1.64-2,3.21-3.12,4.74-.02.02-.04.05-.05.07-.13.17-.21.17-.34,0-1.24-1.7-2.41-3.45-3.44-5.29-.49-.87-.95-1.76-1.31-2.69-.21-.53-.4-1.08-.47-1.65-.08-.63-.01-1.25.17-1.85.63-2.09,2.03-3.37,4.14-3.89.18-.04.36-.06.54-.09.37,0,.73,0,1.1,0Zm1.37,5.4c0-1.06-.87-1.92-1.92-1.91-1.06,0-1.91.86-1.91,1.92,0,1.07.86,1.92,1.93,1.92,1.06,0,1.91-.86,1.9-1.92Z"/></g>
  </g>
</svg>
