<svg width="41" height="38" viewBox="0 0 41 38" fill="none" xmlns="http://www.w3.org/2000/svg">
<path d="M40.9853 23.8035C40.9853 26.0829 40.9596 28.3622 41 30.6416C41.0147 31.4404 40.7575 31.7299 39.9381 31.7153C37.7186 31.6713 35.4955 31.7153 33.276 31.6896C32.666 31.6823 32.2618 31.8875 31.8502 32.3383C29.3258 35.0977 26.3456 37.1205 22.5902 37.8241C22.3035 37.8791 22.0096 37.934 21.7193 37.934C17.3759 37.9414 13.0325 37.989 8.68904 37.9267C6.05433 37.8901 3.69522 35.7939 3.04848 33.0125C2.15187 29.1464 1.31774 25.2657 0.461547 21.3886C0.299864 20.6593 0.0683594 19.9447 0.0683594 19.1825C0.0683594 17.3099 1.3508 15.943 3.23221 15.932C6.826 15.9064 10.4161 15.9247 14.0099 15.921C15.3769 15.921 15.3805 15.9174 14.7816 14.741C13.6057 12.436 12.7091 10.0284 12.1616 7.50354C11.3825 3.9196 14.3259 0.310008 17.9932 0.280691C19.6394 0.269697 20.7161 1.06491 20.9329 2.67731C21.6899 8.32806 24.8648 12.3298 29.4691 15.4007C30.0092 15.7598 30.5494 15.932 31.1998 15.9284C34.1064 15.9064 37.0131 15.9394 39.9197 15.9064C40.7171 15.8954 41.0111 16.1446 40.9964 16.9618C40.9523 19.2411 40.9817 21.5205 40.9817 23.7998L40.9853 23.8035Z" fill="#C4AF96"/>
</svg>
