<?xml version="1.0" encoding="UTF-8"?><svg id="Capa_2" xmlns="http://www.w3.org/2000/svg" viewBox="0 0 111.39 102.81"><defs><style>.cls-1{fill:#c4af96;}</style></defs><g id="Capa_1-2"><g><path class="cls-1" d="m111.34,64.17c0-6.22-.08-12.44.04-18.66.04-2.23-.76-2.9-2.93-2.88-5.35.06-10.7.04-16.04.04l3.92,43.04c4.06,0,8.12-.03,12.17.04,2.22.04,2.92-.75,2.89-2.93-.11-6.22-.04-12.44-.04-18.66Z"/><path class="cls-1" d="m80.01,41.26c-12.54-8.38-21.17-19.3-23.23-34.72C56.19,2.14,53.26-.03,48.78,0c-9.99.07-18,9.92-15.87,19.71,1.5,6.88,3.94,13.46,7.13,19.75,1.63,3.21,1.61,3.22-2.1,3.22-9.78,0-19.55-.04-29.33.03C3.49,42.73,0,46.46,0,51.57c0,2.08.64,4.03,1.07,6.02,2.32,10.58,4.59,21.17,7.04,31.72,1.76,7.6,8.18,13.31,15.35,13.41,11.82.17,23.64.04,35.46.02.79,0,1.59-.16,2.37-.3,10.22-1.92,18.33-7.44,25.2-14.97.59-.65,1.18-1.1,1.84-1.39l-3.95-43.4c-1.62-.05-3-.5-4.36-1.42Z"/></g></g></svg>