<?xml version="1.0" encoding="UTF-8"?><svg id="Capa_2" xmlns="http://www.w3.org/2000/svg" viewBox="0 0 27.83 24.12"><defs><style>.cls-1{fill:#fff;}</style></defs><g id="Capa_1-2"><g><path class="cls-1" d="m26.51,8.95c-.65-.34-1.26-.66-1.86-.97-.22-.12-.45-.23-.67-.34-.32-.16-.32-.16-.32.21,0,.56,0,1.12,0,1.68,0,.2-.05.35-.23.45-.18.11-.35.24-.52.36-.13.09-.21.08-.21-.11,0-.09,0-.17,0-.26,0-2.76,0-5.52,0-8.28,0-.59-.13-.73-.74-.73-5.36,0-10.73,0-16.09,0-.6,0-.73.13-.73.73,0,2.79,0,5.58,0,8.36,0,.1.05.25-.04.3-.11.07-.2-.08-.3-.13-.52-.23-.7-.61-.64-1.17.05-.44,0-.89.01-1.33,0-.21-.07-.23-.24-.14-.75.39-1.51.78-2.26,1.17-.26.13-.09.2.02.29,1.1.76,2.21,1.52,3.31,2.29,1.9,1.32,3.81,2.63,5.71,3.95.29.2.29.21.02.41-3.4,2.49-6.81,4.97-10.21,7.46-.35.26-.45.22-.51-.22-.02-.12-.01-.25-.01-.38C0,18.22.01,13.87,0,9.53c0-.71.3-1.18.92-1.5,1-.5,1.98-1.03,2.98-1.54.2-.1.28-.22.27-.44,0-1.51,0-3.03,0-4.54C4.17.57,4.75,0,5.69,0c5.48,0,10.96,0,16.44,0,.98,0,1.53.56,1.53,1.55,0,1.5,0,2.99,0,4.49,0,.24.07.36.28.47,1.02.51,2.02,1.05,3.03,1.56.58.3.86.75.86,1.41,0,4.37,0,8.74,0,13.11,0,.23.06.53-.15.64-.17.09-.34-.16-.5-.28-3.35-2.42-6.69-4.84-10.04-7.25-.28-.21-.29-.21,0-.41,2.43-1.64,4.86-3.29,7.29-4.93.68-.46,1.36-.92,2.09-1.41Z"/><path class="cls-1" d="m13.92,24.12c-4.12,0-8.24,0-12.35,0-.15,0-.31-.01-.46-.03-.06,0-.15-.01-.16-.09-.02-.08.06-.11.11-.15.52-.38,1.04-.76,1.56-1.15,3.22-2.35,6.43-4.7,9.64-7.05.49-.36,1-.65,1.63-.65.53,0,1,.16,1.43.46,1.88,1.36,3.77,2.72,5.65,4.08,1.91,1.38,3.83,2.77,5.74,4.15.1.07.28.13.24.25-.04.15-.23.14-.37.16-.13.02-.27,0-.4,0-4.09,0-8.18,0-12.27,0Z"/><path class="cls-1" d="m18.8,5.71c.02.79-.29,1.43-.66,2.05-.83,1.41-1.97,2.56-3.1,3.72-.89.91-1.59.7-2.31-.04-1.11-1.14-2.22-2.29-3.04-3.67-.42-.71-.74-1.45-.66-2.3.09-.95.45-1.76,1.25-2.31.81-.55,1.65-.51,2.49-.09.36.18.68.41.95.7.14.15.23.14.37,0,.45-.44.96-.78,1.57-.93,1.09-.27,2.14.22,2.72,1.27.28.51.42,1.06.4,1.59Z"/></g></g></svg>