<?xml version="1.0" encoding="UTF-8"?><svg id="Capa_2" xmlns="http://www.w3.org/2000/svg" viewBox="0 0 29.21 26.1"><defs><style>.cls-1{fill:#fff;}</style></defs><g id="Capa_1-2"><g><path class="cls-1" d="m20.68,26.1c-.58-.11-1.16-.17-1.73-.33-.43-.11-.43-.1-.35-.72.32-2.38.64-4.76.97-7.14.03-.23.07-.48-.14-.58-.17-.08-.28.07-.33.46-.33,2.4-.65,4.81-.97,7.21-.06.47-.06.48-.37.33-.39-.18-.76-.4-1.09-.75-.28-.3-.42-.67-.42-1.18,0-5.07.99-9.7,2.92-13.93.11-.24.24-.33.44-.33,1.52,0,3.04,0,4.56,0,.19,0,.31.07.42.31,1.54,3.35,2.49,7.02,2.81,11.01.08.93.11,1.87.13,2.81.01.58-.15,1.03-.48,1.36-.36.35-.76.57-1.17.76-.18.08-.2-.08-.22-.27-.29-2.12-.58-4.24-.86-6.35-.05-.35-.1-.71-.14-1.06-.03-.25-.1-.43-.3-.38-.19.05-.2.26-.17.49.17,1.29.35,2.57.52,3.86.16,1.21.32,2.42.49,3.62.03.25-.01.36-.19.41-.56.16-1.13.27-1.7.33-.08,0-.16.03-.24.05h-.92c0-.16-.01-.32-.01-.49,0-2.55,0-5.11,0-7.66,0-.48-.07-.65-.25-.62-.28.04-.22.37-.22.62,0,2.72,0,5.43,0,8.15h-.97Z"/><path class="cls-1" d="m4.72,25.67c0-.13-.02-.26-.02-.38,0-3.89,0-7.77,0-11.66q0-.46.48-.47c.64,0,1.29-.02,1.93,0,.32.01.53-.08.72-.34.37-.51.4-.51.78,0,.18.25.39.35.7.34.7-.02,1.41,0,2.11,0,.23,0,.34.06.34.32,0,4.01,0,8.03,0,12.04,0,.05,0,.1-.01.15h-2.44c-.02-.19-.06-.37-.07-.56-.13-1.33-.25-2.66-.38-3.99-.15-1.6-.31-3.19-.46-4.79-.05-.48-.1-.96-.15-1.43-.02,0-.03,0-.05,0-.35,3.59-.69,7.18-1.04,10.77h-2.44Z"/><path class="cls-1" d="m29.21,6.11c-.14.17-.32.22-.53.19-.22-.02-.31.07-.29.29,0,.06,0,.12,0,.18-.03.21-.13.36-.36.36-.24,0-.35-.15-.37-.38,0-.07,0-.14,0-.21.01-.17-.06-.24-.24-.25-.44-.02-.61-.12-.59-.37.03-.35.31-.36.57-.36.19,0,.27-.09.26-.27,0-.07,0-.14,0-.21.03-.21.15-.36.37-.35.21,0,.32.15.35.34.01.07.01.14,0,.21-.02.2.07.3.28.28.21-.02.39.04.55.18v.36Z"/><path class="cls-1" d="m11.84,5.35c-.09.86-.18,1.67-.26,2.49-.05.48-.08.97-.15,1.45-.04.29-.01.54.09.81.26.69.5,1.38.75,2.07.15.41.14.42-.31.42-.9,0-1.8-.01-2.71,0-.3,0-.49-.09-.61-.36-.07-.16-.19-.3-.27-.46-.11-.2-.19-.27-.32-.01-.1.2-.24.39-.35.59-.09.17-.21.24-.41.23-.98,0-1.96,0-2.94,0-.31,0-.33-.03-.23-.33.24-.7.49-1.4.75-2.1.11-.3.17-.59.13-.92-.14-1.23-.26-2.46-.38-3.69,0-.06-.03-.11-.06-.23-.19.3-.35.55-.5.81-.72,1.16-1.44,2.32-2.15,3.49-.13.21-.24.23-.44.1-.42-.27-.86-.53-1.3-.78-.18-.1-.23-.2-.11-.39C1.54,6.13,3.01,3.72,4.47,1.3c.15-.25.39-.32.63-.42.17-.07.2.09.24.19.31.7.63,1.39.94,2.09.51,1.15,1.02,2.3,1.54,3.45.02.04.03.07.05.11.08.16.13.38.37.37.22-.01.27-.2.34-.37.21-.47.42-.94.63-1.41.59-1.33,1.18-2.66,1.78-3.99.07-.16.08-.45.29-.43.24.01.5.14.65.37.12.18.23.37.34.56,1.36,2.24,2.72,4.47,4.08,6.7.13.22.1.32-.11.44-.44.25-.87.51-1.3.78-.2.13-.3.09-.42-.11-.78-1.29-1.58-2.57-2.37-3.85-.08-.13-.14-.28-.32-.42Zm-3.16,2.83c0-.23-.24-.45-.47-.45-.24,0-.44.22-.44.47,0,.26.2.44.46.44.25,0,.45-.21.45-.46Zm0,2c0-.24-.18-.44-.42-.45-.27-.02-.47.15-.49.41-.02.26.17.46.43.47.26,0,.47-.18.48-.42Z"/><path class="cls-1" d="m21.87,6.21c-.78,0-1.55,0-2.33,0-.13,0-.24,0-.29-.16-.25-.89-.63-1.73-.85-2.63-.25-1.07-.13-2.12.29-3.14.07-.18.17-.27.38-.26.41.01.83.01,1.24,0,.21,0,.29.06.28.28-.01.53,0,1.05,0,1.58,0,.13.02.23.11.33.34.36.68.72,1.01,1.09.1.11.17.11.27,0,.32-.35.65-.7.98-1.05.1-.11.14-.23.14-.37,0-.52,0-1.04,0-1.55,0-.22.07-.31.29-.3.43.01.86,0,1.29,0,.17,0,.26.07.33.22.52,1.2.59,2.42.2,3.67-.22.69-.46,1.38-.68,2.07-.05.17-.15.22-.32.22-.78,0-1.55,0-2.33,0Z"/><path class="cls-1" d="m8.21.02c.19,0,.38.02.56,0,.62-.08,1.17.13,1.7.42.16.09.18.17.11.33-.75,1.66-1.49,3.33-2.23,5-.03.07-.04.18-.14.17-.09,0-.1-.11-.13-.18-.74-1.66-1.47-3.31-2.22-4.97-.09-.2-.01-.26.14-.37C6.69-.03,7.45-.01,8.21.02Z"/><path class="cls-1" d="m21.87,8.68c-.76,0-1.52,0-2.28,0-.22,0-.3-.07-.29-.3.01-.48.01-.97,0-1.45,0-.19.07-.26.26-.26,1.55,0,3.1,0,4.65,0,.19,0,.26.07.26.26,0,.49,0,.99,0,1.48,0,.2-.08.27-.27.27-.78,0-1.55,0-2.33,0Z"/><path class="cls-1" d="m2.8,18.52c-.02.25-.17.38-.41.36-.33-.03-.47.08-.44.43.02.23-.1.41-.36.41-.26,0-.37-.19-.36-.42.02-.32-.09-.45-.42-.42-.23.02-.42-.1-.42-.35,0-.26.18-.38.41-.37.35.03.45-.11.43-.44-.01-.23.13-.41.38-.4.24.01.36.2.33.41-.04.35.11.45.44.43.21-.01.38.11.41.35Z"/></g></g></svg>