<?xml version="1.0" encoding="UTF-8"?><svg id="Capa_2" xmlns="http://www.w3.org/2000/svg" xmlns:xlink="http://www.w3.org/1999/xlink" viewBox="0 0 387.87 192.36"><defs><style>.cls-1{fill:#4c615a;}.cls-2{fill:#7b847b;}.cls-3{fill:url(#Degradado_sin_nombre_21);}</style><linearGradient id="Degradado_sin_nombre_21" x1="1381.61" y1="1517.27" x2="1434.61" y2="1464.27" gradientTransform="translate(-1201.19 -1346.8)" gradientUnits="userSpaceOnUse"><stop offset="0" stop-color="#cb9569"/><stop offset=".33" stop-color="#855633"/><stop offset=".62" stop-color="#c3996d"/><stop offset=".73" stop-color="#e7c7ac"/><stop offset="1" stop-color="#cca98a"/></linearGradient></defs><g id="Capa_1-2"><g><path class="cls-2" d="m113.57,75.89c-.81,1.04-2.02,2.65-3.63,4.84-1.62,2.19-3.49,4.67-5.62,7.43-2.13,2.77-4.38,5.62-6.74,8.56-2.36,2.94-4.7,5.62-7,8.04-4.61,4.96-9.13,9.08-13.57,12.36-4.44,3.29-8.88,5.93-13.31,7.95-4.44,2.01-8.82,3.43-13.14,4.24-4.32.8-8.67,1.21-13.05,1.21s-8.99-.78-13.48-2.33c-4.49-1.56-8.5-3.92-12.01-7.09-3.52-3.17-6.4-7.2-8.64-12.1-2.25-4.9-3.37-10.74-3.37-17.54,0-4.61.72-9.02,2.16-13.22,1.44-4.21,3.51-7.92,6.22-11.15,2.71-3.23,5.99-5.79,9.85-7.69,3.86-1.9,8.21-2.85,13.05-2.85,2.65,0,4.84.38,6.57,1.12,1.73.75,3.11,1.64,4.15,2.68s1.76,2.1,2.16,3.2c.4,1.1.6,1.99.6,2.68,0,3.23-.95,5.59-2.85,7.09-1.9,1.5-4.12,2.25-6.66,2.25-2.07,0-3.69-.49-4.84-1.47-1.15-.98-2.19-1.93-3.11-2.85-1.5-1.5-2.8-2.42-3.89-2.77-1.1-.35-2.16-.52-3.2-.52-.92,0-2.1.4-3.54,1.21-1.44.81-2.85,1.99-4.24,3.54s-2.59,3.52-3.63,5.88c-1.04,2.36-1.56,5.21-1.56,8.56,0,5.53,1.09,10.05,3.28,13.57,2.19,3.52,4.95,6.28,8.3,8.3,3.34,2.02,6.97,3.4,10.89,4.15,3.92.75,7.55,1.12,10.89,1.12,7.37,0,14.29-1.35,20.74-4.06,6.45-2.71,12.68-6.45,18.67-11.24,5.99-4.78,11.84-10.37,17.54-16.77,5.7-6.4,11.44-13.34,17.2-20.83,4.49-5.76,8.79-11.24,12.88-16.42,4.09-5.19,7.92-9.94,11.5-14.26,3.57-4.32,6.8-8.06,9.68-11.24,2.88-3.17,5.3-5.62,7.26-7.35,2.07-1.84,4.21-3.51,6.4-5.01,2.19-1.5,4.58-2.77,7.17-3.8,2.59-1.04,5.45-1.84,8.56-2.42,3.11-.58,6.68-.86,10.72-.86,6.57,0,11.93.98,16.08,2.94,4.15,1.96,6.22,4.55,6.22,7.78,0,1.04-.46,1.96-1.38,2.77-.92.81-2.07,1.21-3.46,1.21-1.73,0-3.11-.4-4.15-1.21-1.04-.8-1.84-1.67-2.42-2.59-.58-.8-1.5-1.58-2.77-2.33-1.27-.75-2.54-1.12-3.8-1.12-1.73,0-3.14.75-4.23,2.25-1.1,1.5-2.33,4.38-3.72,8.64l-25.41,79.34c-1.38,4.15-2.07,7.38-2.07,9.68,0,3.46-.35,5.96-1.04,7.52s-1.73,2.59-3.11,3.11c-1.38.52-3.11.72-5.19.61-2.07-.12-4.49-.17-7.26-.17-3.92,0-6.66-.32-8.21-.95-1.56-.63-2.39-1.58-2.51-2.85-.12-1.27.26-2.91,1.12-4.93.86-2.01,1.76-4.35,2.68-7l9.16-26.79h-29.9Zm32.32-6.57l17.63-50.82c.46-1.27.49-2.16.09-2.68-.41-.52-.78-.78-1.12-.78s-.92.26-1.73.78c-.81.52-1.67,1.18-2.59,1.99-1.15,1.04-2.68,2.65-4.58,4.84-1.9,2.19-4.04,4.78-6.4,7.78-2.36,3-4.84,6.22-7.43,9.68-2.59,3.46-5.19,6.92-7.78,10.37-2.59,3.46-5.04,6.83-7.35,10.11-2.31,3.28-4.26,6.2-5.88,8.73h27.14Z"/><path class="cls-1" d="m244.4,76l9.16,26.79c.92,2.65,1.81,4.99,2.68,7,.86,2.02,1.24,3.66,1.12,4.93-.11,1.27-.95,2.22-2.51,2.85-1.56.63-4.29.95-8.21.95-2.77,0-5.19.06-7.26.17-2.07.11-3.8-.09-5.19-.61-1.38-.52-2.42-1.56-3.11-3.11-.69-1.56-1.04-4.06-1.04-7.52,0-2.3-.69-5.53-2.07-9.68l-25.41-79.34c-1.38-4.26-2.62-7.14-3.72-8.64-1.09-1.5-2.51-2.25-4.23-2.25-1.27,0-2.53.38-3.8,1.12-1.27.75-2.19,1.53-2.77,2.33-.58.92-1.38,1.79-2.42,2.59-1.04.81-2.42,1.21-4.15,1.21-1.38,0-2.53-.4-3.46-1.21-.92-.8-1.38-1.73-1.38-2.77,0-3.22,2.07-5.82,6.22-7.78,4.15-1.96,9.51-2.94,16.08-2.94,4.04,0,7.61.29,10.72.86,3.11.58,5.96,1.38,8.56,2.42,2.59,1.04,4.99,2.31,7.17,3.8,2.19,1.5,4.32,3.17,6.4,5.01,1.96,1.73,4.38,4.18,7.26,7.35,2.88,3.17,6.11,6.91,9.68,11.24,3.57,4.32,7.41,9.08,11.5,14.26,4.09,5.19,8.38,10.66,12.88,16.42,5.76,7.49,11.5,14.43,17.2,20.83,5.7,6.4,11.55,11.99,17.54,16.77,5.99,4.78,12.22,8.53,18.67,11.24,6.46,2.71,13.37,4.06,20.74,4.06,3.34,0,6.97-.37,10.89-1.12,3.92-.75,7.55-2.13,10.89-4.15,3.34-2.01,6.11-4.78,8.3-8.3,2.19-3.51,3.28-8.04,3.28-13.57,0-3.34-.52-6.19-1.56-8.56-1.04-2.36-2.25-4.32-3.63-5.88s-2.79-2.74-4.23-3.54c-1.44-.81-2.62-1.21-3.54-1.21-1.04,0-2.1.17-3.2.52-1.09.35-2.39,1.27-3.89,2.77-.92.92-1.96,1.87-3.11,2.85-1.15.98-2.77,1.47-4.84,1.47-2.53,0-4.75-.75-6.66-2.25-1.9-1.5-2.85-3.86-2.85-7.09,0-.69.2-1.58.6-2.68.41-1.09,1.12-2.16,2.16-3.2s2.42-1.93,4.15-2.68c1.73-.75,3.92-1.12,6.57-1.12,4.84,0,9.19.95,13.05,2.85,3.86,1.9,7.15,4.47,9.85,7.69,2.71,3.23,4.78,6.94,6.22,11.15,1.44,4.21,2.16,8.62,2.16,13.22,0,6.8-1.12,12.65-3.37,17.54-2.25,4.9-5.13,8.93-8.64,12.1-3.51,3.17-7.52,5.53-12.01,7.09s-8.99,2.33-13.48,2.33-8.73-.41-13.05-1.21c-4.32-.81-8.7-2.22-13.14-4.24-4.43-2.02-8.87-4.67-13.31-7.95-4.44-3.28-8.96-7.4-13.57-12.36-2.3-2.42-4.64-5.1-7-8.04-2.36-2.94-4.61-5.79-6.74-8.56-2.13-2.77-4-5.24-5.62-7.43-1.61-2.19-2.82-3.8-3.63-4.84h-29.91Zm24.72-6.57c-1.61-2.53-3.57-5.45-5.88-8.73-2.3-3.28-4.75-6.66-7.35-10.11s-5.19-6.92-7.78-10.37-5.07-6.68-7.43-9.68c-2.36-3-4.49-5.59-6.4-7.78-1.9-2.19-3.43-3.8-4.58-4.84-.92-.8-1.79-1.47-2.59-1.99-.8-.52-1.38-.78-1.73-.78s-.72.26-1.12.78c-.4.52-.37,1.41.09,2.68l17.63,50.82h27.14Z"/><g><path class="cls-1" d="m50.25,166.28h9.44c1.37-2.79,2.72-5.55,4.06-8.28,1.34-2.73,2.64-5.35,3.89-7.85s2.43-4.85,3.54-7.04c1.11-2.19,2.1-4.14,2.96-5.84.86-1.7,1.6-3.12,2.21-4.26.61-1.13,1.03-1.9,1.26-2.28.31-.57.64-.96.99-1.18.35-.22.78-.33,1.3-.33.59,0,1.07.19,1.43.56.36.37.54.92.54,1.64,0,.28-.03.97-.08,2.05-.05,1.08-.12,2.44-.19,4.06-.08,1.62-.17,3.44-.27,5.46-.1,2.01-.19,4.08-.27,6.21-.08,2.13-.14,4.24-.19,6.34-.05,2.1-.08,4.04-.08,5.82v2.48c0,.83.03,1.61.08,2.36h4.58c1.43,0,2.6-.03,3.5-.08v1.51c-1.39.05-2.75.08-4.06.08h-3.95c.18,3.35.56,6.4,1.14,9.13.58,2.73,1.47,5.08,2.67,7.02,1.2,1.95,2.75,3.46,4.66,4.53,1.91,1.07,4.28,1.61,7.12,1.61,1.13,0,2.35-.14,3.64-.43l.27,1.59c-1.32.41-2.51.72-3.58.91s-2.1.29-3.08.29c-2.37,0-4.43-.3-6.17-.89-1.74-.59-3.22-1.43-4.45-2.52-1.23-1.08-2.22-2.38-3-3.89s-1.38-3.17-1.82-4.99c-.44-1.82-.75-3.77-.93-5.84-.18-2.08-.27-4.22-.27-6.44h-15.79c-.15.36-.31.7-.46,1.03s-.32.66-.5,1.03c-1.29,2.84-2.53,5.29-3.71,7.37-1.19,2.08-2.33,3.85-3.42,5.32-1.1,1.47-2.13,2.68-3.11,3.64-.98.95-1.92,1.73-2.82,2.34-.9.61-1.76,1.08-2.57,1.43-.81.35-1.58.65-2.3.91l-.66-1.35c.98-.64,1.88-1.32,2.71-2.01.83-.7,1.79-1.61,2.9-2.75,1.11-1.14,2.3-2.5,3.56-4.1,1.26-1.6,2.59-3.46,3.97-5.59,1.38-2.13,2.74-4.55,4.08-7.25h-8.74v-1.51Zm29.4-35.4c-.28,0-.92.87-1.9,2.61-.98,1.74-2.24,4.17-3.77,7.29s-3.32,6.85-5.36,11.18c-2.04,4.33-4.26,9.11-6.65,14.32h15.17c0-2.35.08-4.71.23-7.1s.34-4.72.56-7c.22-2.28.45-4.48.7-6.58.24-2.1.47-4.04.68-5.8.21-1.77.38-3.33.52-4.7.14-1.37.21-2.46.21-3.29,0-.39-.03-.64-.1-.75-.06-.12-.16-.17-.29-.17Z"/><path class="cls-1" d="m108.72,133.55c0,1.62-.19,3.35-.56,5.18-.37,1.83-.86,3.69-1.47,5.57-.61,1.88-1.3,3.78-2.09,5.69-.79,1.91-1.58,3.74-2.38,5.49-.8,1.75-1.59,3.42-2.36,4.99s-1.46,2.98-2.05,4.22c.1,2.12.28,4.02.54,5.73.26,1.7.58,3.15.97,4.35s.85,2.12,1.39,2.77c.54.64,1.16.97,1.86.97.77,0,1.54-.36,2.3-1.08.76-.72,1.53-1.74,2.3-3.06s1.56-2.9,2.36-4.76c.8-1.86,1.61-3.93,2.44-6.23l1.51.39c-.62,1.78-1.32,3.66-2.09,5.63s-1.64,3.79-2.59,5.44c-.95,1.65-1.99,3.02-3.11,4.1-1.12,1.08-2.33,1.62-3.62,1.62s-2.37-.4-3.25-1.2c-.88-.8-1.6-1.85-2.17-3.15-.57-1.3-1.01-2.79-1.32-4.45-.31-1.66-.54-3.36-.7-5.09-.15-1.73-.25-3.41-.27-5.05-.03-1.64-.04-3.09-.04-4.35,0-2.35.1-4.68.29-7,.19-2.32.49-4.54.89-6.65.4-2.11.88-4.08,1.45-5.9s1.23-3.39,1.99-4.72c.76-1.33,1.6-2.37,2.52-3.12.92-.75,1.92-1.12,3-1.12.77,0,1.43.13,1.97.39.54.26.98.61,1.32,1.04.33.44.58.95.73,1.53s.23,1.19.23,1.84Zm-11.14,22.29v2.88c0,.94.03,1.85.08,2.73.64-1.29,1.33-2.7,2.05-4.24.72-1.53,1.44-3.12,2.15-4.76.71-1.64,1.39-3.29,2.03-4.97.64-1.68,1.21-3.32,1.7-4.93.49-1.61.88-3.15,1.18-4.6.3-1.46.44-2.78.44-3.97,0-.39-.03-.8-.1-1.24s-.18-.84-.35-1.22c-.17-.37-.41-.68-.72-.93s-.71-.37-1.2-.37c-.98,0-1.92.64-2.81,1.92-.89,1.28-1.66,3.05-2.32,5.32s-1.18,4.97-1.57,8.11c-.39,3.13-.58,6.56-.58,10.27Z"/><path class="cls-1" d="m116.42,178.28c-1.62,0-2.97-.66-4.04-1.97s-1.61-3.3-1.61-5.96c0-1.75.35-3.99,1.06-6.71.71-2.72,1.94-5.8,3.69-9.23l1.43.39c-.15.67-.41,1.59-.75,2.75-.35,1.16-.7,2.46-1.04,3.89-.35,1.43-.65,2.93-.91,4.49-.26,1.56-.39,3.06-.39,4.51,0,1.21.09,2.2.27,2.96.18.76.42,1.35.72,1.78.3.43.64.72,1.04.87.4.15.83.23,1.3.23.75,0,1.46-.23,2.13-.7.67-.46,1.31-1.08,1.92-1.84.61-.76,1.17-1.61,1.7-2.55.53-.94,1.01-1.89,1.43-2.84.43-.95.81-1.86,1.14-2.73.33-.86.61-1.61.81-2.22l1.51.39c-.28.77-.61,1.67-.99,2.69-.37,1.02-.8,2.07-1.28,3.15-.48,1.08-1.01,2.14-1.61,3.17-.59,1.03-1.26,1.95-2.01,2.77-.75.81-1.58,1.47-2.5,1.97-.92.5-1.93.75-3.04.75Zm6.27-36.06c0,.9-.35,1.6-1.04,2.09-.7.49-1.57.74-2.63.74-.54,0-1.05-.08-1.53-.25-.48-.17-.89-.39-1.24-.66-.35-.27-.62-.59-.81-.97-.19-.37-.29-.77-.29-1.18,0-.88.34-1.59,1.03-2.13.68-.54,1.48-.81,2.38-.81.64,0,1.22.1,1.74.29.52.19.95.45,1.32.75.36.31.63.65.81,1.03.18.37.27.74.27,1.1Zm-2.09,0c0-.26-.11-.5-.33-.72-.22-.22-.55-.33-.99-.33-.8,0-1.2.3-1.2.89,0,.28.12.52.37.72.24.19.57.29.99.29.39,0,.68-.08.87-.25s.29-.37.29-.6Z"/><path class="cls-1" d="m147.72,157.11c-1.62,2.14-3.26,4.31-4.91,6.52-1.65,2.21-3.31,4.47-4.99,6.79.59,1.08,1.18,2.1,1.76,3.06.58.95,1.16,1.79,1.74,2.5.58.71,1.17,1.27,1.76,1.68.59.41,1.21.62,1.86.62,1.08,0,2.09-.46,3.02-1.39.93-.93,1.79-2.11,2.59-3.56.8-1.44,1.55-3.04,2.24-4.8.7-1.75,1.35-3.47,1.97-5.15l1.51.39c-.85,2.24-1.68,4.36-2.5,6.35s-1.68,3.73-2.59,5.24c-.92,1.51-1.93,2.7-3.06,3.58-1.12.88-2.42,1.32-3.89,1.32-.49,0-1-.04-1.53-.12-.53-.08-1.08-.28-1.66-.6-.58-.32-1.2-.81-1.86-1.45s-1.37-1.54-2.15-2.67c-.26-.33-.49-.67-.7-1.01-.21-.33-.43-.68-.66-1.04-1.16,1.57-2.3,3.18-3.4,4.82-1.11,1.64-2.22,3.27-3.33,4.89l-1.28-.85c1.19-1.75,2.37-3.48,3.56-5.18,1.19-1.7,2.4-3.41,3.64-5.11-.7-1.24-1.37-2.5-2.03-3.77-.66-1.28-1.26-2.44-1.82-3.48-.56-1.04-1.04-1.9-1.47-2.55-.43-.66-.73-.99-.91-.99-.18.52-.34,1.01-.48,1.47-.14.46-.33.98-.56,1.55l-1.43-.54c.28-.72.53-1.45.74-2.19.21-.74.39-1.46.54-2.19.08-.28.26-.52.54-.7.28-.18.55-.27.81-.27.15,0,.39.06.72.17.32.12.75.45,1.3,1.01s1.22,1.4,2.03,2.53c.81,1.14,1.79,2.71,2.92,4.72.21.39.42.76.64,1.12.22.36.43.72.64,1.08,1.6-2.19,3.19-4.35,4.76-6.46,1.57-2.11,3.15-4.22,4.72-6.31l1.2.97Z"/></g><g><path class="cls-1" d="m250.35,166.28h9.44c1.37-2.79,2.72-5.55,4.06-8.28,1.34-2.73,2.64-5.35,3.89-7.85s2.43-4.85,3.54-7.04,2.1-4.14,2.96-5.84c.86-1.7,1.6-3.12,2.21-4.26.61-1.13,1.03-1.9,1.26-2.28.31-.57.64-.96.99-1.18.35-.22.78-.33,1.3-.33.59,0,1.07.19,1.43.56.36.37.54.92.54,1.64,0,.28-.03.97-.08,2.05-.05,1.08-.12,2.44-.19,4.06s-.17,3.44-.27,5.46c-.1,2.01-.19,4.08-.27,6.21s-.14,4.24-.19,6.34c-.05,2.1-.08,4.04-.08,5.82v2.48c0,.83.03,1.61.08,2.36h4.58c1.43,0,2.6-.03,3.5-.08v1.51c-1.39.05-2.75.08-4.06.08h-3.95c.18,3.35.56,6.4,1.14,9.13s1.47,5.08,2.67,7.02,2.75,3.46,4.66,4.53c1.91,1.07,4.28,1.61,7.12,1.61,1.13,0,2.35-.14,3.64-.43l.27,1.59c-1.32.41-2.51.72-3.58.91-1.07.19-2.1.29-3.08.29-2.37,0-4.43-.3-6.17-.89-1.74-.59-3.22-1.43-4.45-2.52-1.22-1.08-2.22-2.38-3-3.89s-1.38-3.17-1.82-4.99c-.44-1.82-.75-3.77-.93-5.84-.18-2.08-.27-4.22-.27-6.44h-15.79c-.15.36-.31.7-.46,1.03-.16.32-.32.66-.5,1.03-1.29,2.84-2.53,5.29-3.71,7.37-1.19,2.08-2.33,3.85-3.42,5.32-1.1,1.47-2.13,2.68-3.11,3.64-.98.95-1.92,1.73-2.83,2.34-.9.61-1.76,1.08-2.57,1.43-.81.35-1.58.65-2.3.91l-.66-1.35c.98-.64,1.88-1.32,2.71-2.01.83-.7,1.79-1.61,2.9-2.75,1.11-1.14,2.29-2.5,3.56-4.1,1.26-1.6,2.58-3.46,3.97-5.59,1.38-2.13,2.74-4.55,4.08-7.25h-8.74v-1.51Zm29.41-35.4c-.28,0-.92.87-1.9,2.61-.98,1.74-2.24,4.17-3.77,7.29-1.54,3.12-3.32,6.85-5.36,11.18-2.04,4.33-4.26,9.11-6.65,14.32h15.17c0-2.35.08-4.71.23-7.1.16-2.39.34-4.72.56-7,.22-2.28.45-4.48.7-6.58.25-2.1.47-4.04.68-5.8.21-1.77.38-3.33.52-4.7s.21-2.46.21-3.29c0-.39-.03-.64-.1-.75-.06-.12-.16-.17-.29-.17Z"/><path class="cls-1" d="m308.81,133.55c0,1.62-.19,3.35-.56,5.18-.37,1.83-.86,3.69-1.47,5.57s-1.3,3.78-2.09,5.69c-.79,1.91-1.58,3.74-2.38,5.49s-1.59,3.42-2.36,4.99c-.77,1.57-1.46,2.98-2.05,4.22.1,2.12.28,4.02.54,5.73s.58,3.15.97,4.35.85,2.12,1.39,2.77c.54.64,1.16.97,1.86.97.77,0,1.54-.36,2.3-1.08.76-.72,1.53-1.74,2.3-3.06.77-1.32,1.56-2.9,2.36-4.76s1.61-3.93,2.44-6.23l1.51.39c-.62,1.78-1.32,3.66-2.09,5.63s-1.64,3.79-2.59,5.44c-.96,1.65-1.99,3.02-3.12,4.1s-2.33,1.62-3.62,1.62-2.37-.4-3.25-1.2c-.88-.8-1.6-1.85-2.17-3.15-.57-1.3-1.01-2.79-1.32-4.45-.31-1.66-.54-3.36-.7-5.09-.15-1.73-.25-3.41-.27-5.05-.03-1.64-.04-3.09-.04-4.35,0-2.35.1-4.68.29-7,.19-2.32.49-4.54.89-6.65.4-2.11.88-4.08,1.45-5.9s1.23-3.39,1.99-4.72c.76-1.33,1.6-2.37,2.51-3.12.92-.75,1.92-1.12,3-1.12.77,0,1.43.13,1.97.39.54.26.98.61,1.32,1.04.33.44.58.95.74,1.53.15.58.23,1.19.23,1.84Zm-11.14,22.29v2.88c0,.94.03,1.85.08,2.73.64-1.29,1.33-2.7,2.05-4.24.72-1.53,1.44-3.12,2.15-4.76.71-1.64,1.39-3.29,2.03-4.97.64-1.68,1.21-3.32,1.7-4.93.49-1.61.88-3.15,1.18-4.6.3-1.46.44-2.78.44-3.97,0-.39-.03-.8-.1-1.24s-.18-.84-.35-1.22c-.17-.37-.41-.68-.72-.93s-.71-.37-1.2-.37c-.98,0-1.92.64-2.8,1.92-.89,1.28-1.66,3.05-2.32,5.32-.66,2.27-1.18,4.97-1.57,8.11-.39,3.13-.58,6.56-.58,10.27Z"/><path class="cls-1" d="m320.54,181.76c-1.32,0-2.58-.23-3.79-.7-1.21-.46-2.28-1.17-3.19-2.11-.92-.94-1.64-2.12-2.19-3.54-.54-1.42-.81-3.08-.81-4.99,0-2.32.33-4.39,1.01-6.21s1.53-3.35,2.57-4.6c1.04-1.25,2.21-2.21,3.5-2.86,1.29-.66,2.55-.99,3.79-.99,1.6,0,2.87.53,3.81,1.59s1.41,2.42,1.41,4.1c0,1.45-.27,2.75-.81,3.93-.54,1.17-1.26,2.18-2.15,3.02-.89.84-1.91,1.49-3.06,1.95-1.15.46-2.34.7-3.58.7-.59,0-1.15-.03-1.68-.1-.53-.06-1-.14-1.41-.21.15,1.6.46,2.98.93,4.14.46,1.16,1.04,2.12,1.74,2.86s1.48,1.3,2.34,1.66,1.76.54,2.69.54c1.16,0,2.23-.28,3.21-.85s1.88-1.31,2.71-2.22c.83-.92,1.58-1.97,2.26-3.15s1.3-2.39,1.84-3.62c.54-1.22,1.03-2.42,1.45-3.6s.81-2.21,1.14-3.12l1.51.39c-.34.85-.73,1.88-1.18,3.1-.45,1.21-.97,2.48-1.57,3.81-.59,1.33-1.29,2.66-2.09,3.99-.8,1.33-1.7,2.51-2.71,3.56s-2.15,1.9-3.42,2.55c-1.28.66-2.7.99-4.28.99Zm.97-24.49c-.95,0-1.89.3-2.8.91-.92.61-1.74,1.44-2.46,2.5-.72,1.06-1.31,2.31-1.76,3.75-.45,1.45-.68,2.99-.68,4.64.33.13.81.24,1.41.33.61.09,1.35.14,2.22.14.93,0,1.85-.2,2.77-.6.92-.4,1.74-.95,2.48-1.66.73-.71,1.33-1.55,1.78-2.53s.68-2.05.68-3.21c0-.57-.08-1.11-.23-1.62-.16-.52-.39-.97-.7-1.35s-.69-.7-1.14-.93c-.45-.23-.97-.35-1.57-.35Z"/><path class="cls-1" d="m355.63,157.11c-1.62,2.14-3.26,4.31-4.91,6.52-1.65,2.21-3.31,4.47-4.99,6.79.59,1.08,1.18,2.1,1.76,3.06.58.95,1.16,1.79,1.74,2.5.58.71,1.17,1.27,1.76,1.68.59.41,1.21.62,1.86.62,1.08,0,2.09-.46,3.02-1.39s1.79-2.11,2.59-3.56c.8-1.44,1.55-3.04,2.24-4.8.7-1.75,1.35-3.47,1.97-5.15l1.51.39c-.85,2.24-1.68,4.36-2.5,6.35s-1.68,3.73-2.59,5.24c-.92,1.51-1.93,2.7-3.06,3.58-1.12.88-2.42,1.32-3.89,1.32-.49,0-1-.04-1.53-.12-.53-.08-1.08-.28-1.66-.6-.58-.32-1.2-.81-1.86-1.45-.66-.64-1.37-1.54-2.15-2.67-.26-.33-.49-.67-.7-1.01-.21-.33-.43-.68-.66-1.04-1.16,1.57-2.3,3.18-3.4,4.82-1.11,1.64-2.22,3.27-3.33,4.89l-1.28-.85c1.19-1.75,2.37-3.48,3.56-5.18,1.19-1.7,2.4-3.41,3.64-5.11-.7-1.24-1.37-2.5-2.03-3.77-.66-1.28-1.26-2.44-1.82-3.48-.55-1.04-1.04-1.9-1.47-2.55-.42-.66-.73-.99-.91-.99-.18.52-.34,1.01-.48,1.47-.14.46-.33.98-.56,1.55l-1.43-.54c.28-.72.53-1.45.73-2.19.21-.74.39-1.46.54-2.19.08-.28.26-.52.54-.7.28-.18.55-.27.81-.27.15,0,.39.06.72.17.32.12.75.45,1.3,1.01s1.22,1.4,2.03,2.53c.81,1.14,1.79,2.71,2.92,4.72.21.39.42.76.64,1.12.22.36.43.72.64,1.08,1.6-2.19,3.18-4.35,4.76-6.46,1.57-2.11,3.15-4.22,4.72-6.31l1.2.97Z"/></g><path class="cls-3" d="m227.9,187.72c-.44-.48-1.1-.72-1.99-.72-2.28,0-4.62-.61-7.01-1.82-2.39-1.21-4.75-3.11-7.06-5.68-2.32-2.58-4.54-5.83-6.68-9.77-2.14-3.94-4.08-8.67-5.85-14.18,3.46-3.16,6.77-7.51,9.93-13.03,3.16-5.52,5.92-12.73,8.28-21.64.07-.29.11-.66.11-1.1,0-1.47-.37-2.52-1.1-3.15-.74-.62-1.58-.94-2.54-.94s-1.82.3-2.59.88c-.77.59-1.16,1.32-1.16,2.21,0,.37.02.74.05,1.1.04.37.06.74.06,1.1,0,1.91-.28,4.14-.83,6.68-.55,2.54-1.34,5.17-2.37,7.89-1.03,2.72-2.32,5.45-3.86,8.17-1.55,2.72-3.31,5.19-5.3,7.4-.52-1.69-.98-3.44-1.38-5.24-.41-1.8-.79-3.66-1.16-5.57-.52-2.58-.96-5-1.32-7.29-.37-2.28-.66-4.49-.88-6.62,1.99-2.5,3.92-5.04,5.8-7.62,1.88-2.57,3.53-5.06,4.97-7.45,1.44-2.39,2.59-4.67,3.48-6.84.88-2.17,1.32-4.14,1.32-5.91,0-2.13-.28-3.9-.83-5.3-.55-1.4-1.27-2.54-2.15-3.42-.88-.88-1.86-1.55-2.93-1.99-1.07-.44-2.08-.73-3.04-.88-2.14,0-3.97.63-5.52,1.88-1.55,1.25-2.8,3.02-3.75,5.3-.96,2.28-1.66,4.97-2.1,8.06-.44,3.09-.66,6.44-.66,10.05v3.04c0,.99.04,2.01.11,3.04-2.36,2.65-4.73,5.43-7.12,8.33-2.39,2.91-4.53,5.81-6.4,8.72-1.88,2.91-3.4,5.79-4.58,8.66-1.18,2.87-1.77,5.59-1.77,8.17,0,2.36.35,4.3,1.05,5.85.7,1.54,1.56,2.76,2.59,3.64,1.03.88,2.19,1.49,3.48,1.82,1.29.33,2.48.5,3.59.5,2.35,0,5-.39,7.95-1.16,2.94-.77,6-2.26,9.16-4.47,1.62,4.71,3.44,9.09,5.46,13.14,2.02,4.05,4.27,7.54,6.73,10.49,2.46,2.94,5.19,5.24,8.17,6.9,2.98,1.66,6.2,2.48,9.66,2.48.88,0,1.55-.22,1.99-.66.44-.44.66-.92.66-1.43,0-.59-.22-1.12-.66-1.6Zm-35.65-81.74c0-2.21.22-4.19.67-5.96.45-1.77,1.04-3.29,1.78-4.58.74-1.29,1.54-2.28,2.4-2.98.86-.7,1.73-1.05,2.62-1.05.67,0,1.25.2,1.73.61.48.41.87.94,1.17,1.6.3.66.5,1.36.61,2.1.11.74.17,1.44.17,2.1,0,1.47-1.08,3.57-3.23,6.29-2.16,2.72-4.79,5.81-7.91,9.27v-7.4Zm-3.84,52.05c-2.17.92-4.46,1.38-6.89,1.38-1.61,0-2.9-.17-3.85-.5-.96-.33-1.67-.77-2.15-1.32-.48-.55-.79-1.2-.94-1.93-.15-.73-.22-1.47-.22-2.21,0-.96.42-2.19,1.27-3.7.84-1.51,1.94-3.22,3.3-5.13,1.36-1.91,2.94-4.01,4.73-6.29,1.8-2.28,3.69-4.64,5.67-7.06.22,1.47.46,2.98.72,4.53.26,1.55.57,3.05.94,4.53.51,2.43,1.07,4.82,1.66,7.17.59,2.36,1.21,4.64,1.88,6.84-1.91,1.55-3.95,2.78-6.12,3.7Z"/></g></g></svg>